<svg version="1.1" id="Layer_1" xmlns="http://www.w3.org/2000/svg" xmlns:xlink="http://www.w3.org/1999/xlink" x="0px" y="0px"
	 width="250px" height="214.576px" viewBox="0 0 250 214.576" enable-background="new 0 0 250 214.576" xml:space="preserve">
<g>
	<path fill="#F04B2A" d="M247.369,92.194c0-23.246-35.781-42.093-79.922-42.093c-25.58,0-48.335,6.337-62.964,16.184l-16.44-10.902
		c6.561-5.496,10.494-12.46,10.494-20.045c0-17.741-21.469-32.124-47.952-32.124S2.631,17.598,2.631,35.339
		c0,17.742,21.47,32.124,47.953,32.124c13.817,0,26.261-3.92,35.012-10.185l16.329,10.826c-9.065,6.827-14.4,15.128-14.4,24.09
		c0,22.953,34.889,41.6,78.258,42.068v18.871c-25.878,0.43-46.644,13.528-46.644,29.638c0,16.383,21.468,29.66,47.953,29.66
		c26.482,0,47.953-13.277,47.953-29.66c0-16.045-20.602-29.104-46.332-29.633v-18.87
		C212.268,133.911,247.369,115.217,247.369,92.194z M8.721,35.339c0-15.488,18.743-28.044,41.863-28.044
		c23.119,0,41.862,12.556,41.862,28.044c0,15.489-18.743,28.045-41.862,28.045C27.464,63.384,8.721,50.828,8.721,35.339z
		 M97.675,92.194c0-20.294,31.239-36.746,69.772-36.746s69.771,16.452,69.771,36.746c0,20.295-31.238,36.747-69.771,36.747
		S97.675,112.49,97.675,92.194z M208.953,182.771c0,14.301-18.742,25.895-41.861,25.895s-41.864-11.594-41.864-25.895
		c0-14.299,18.745-25.893,41.864-25.893S208.953,168.472,208.953,182.771z"/>
	<g>
		<path fill="#F04B2A" d="M120.915,69.195h33.417l12.859,27.272l12.807-27.272h33.359v44.845h-20.781V79.815l-16.07,34.225h-18.797
			l-16.016-34.225v34.225h-20.779V69.195z"/>
	</g>
	<g>
		<path fill="#F04B2A" d="M177.623,191.384h-21.859l-3.014,5.418h-19.668l23.371-32.9h21.037l23.391,32.9H180.74L177.623,191.384z
			 M173.592,184.283l-6.834-11.844l-6.809,11.844H173.592z"/>
	</g>
	<g>
		<path fill="#F04B2A" d="M65.415,39.179l18.914,3.253c-1.27,3.022-3.269,5.548-5.996,7.574c-2.728,2.028-6.113,3.557-10.157,4.587
			c-4.044,1.032-9.19,1.548-15.438,1.548c-7.582,0-13.774-0.63-18.58-1.891c-4.805-1.262-8.952-3.479-12.439-6.656
			c-3.489-3.175-5.234-7.24-5.234-12.194c0-6.605,3.071-11.681,9.212-15.229c6.142-3.548,14.83-5.323,26.066-5.323
			c8.792,0,15.7,1.018,20.732,3.05c5.031,2.034,8.768,5.153,11.212,9.363l-19.004,2.417c-0.668-1.212-1.369-2.099-2.1-2.661
			c-1.21-0.94-2.69-1.665-4.44-2.173c-1.752-0.506-3.707-0.761-5.872-0.761c-4.901,0-8.658,1.128-11.269,3.377
			c-1.973,1.672-2.959,4.296-2.959,7.87c0,4.432,1.173,7.469,3.521,9.111c2.347,1.643,5.644,2.464,9.892,2.464
			c4.124,0,7.24-0.659,9.35-1.979C62.933,43.608,64.461,41.692,65.415,39.179z"/>
	</g>
</g>
</svg>
